Coordinates
version=1
nRows=10
nColumns=22
inDegrees=yes

Units are S.I. units (second, meters, Newtons, ...)
If the header above contains a line with 'inDegrees', this indicates whether rotational values are in degrees (yes) or radians (no).

endheader
time	pelvis_tilt	pelvis_list	pelvis_rotation	pelvis_tx	pelvis_ty	pelvis_tz	hip_flexion_r	hip_adduction_r	hip_rotation_r	knee_angle_r	ankle_angle_r	subtalar_angle_r	hip_flexion_l	hip_adduction_l	hip_rotation_l	knee_angle_l	ankle_angle_l	subtalar_angle_l	lumbar_extension	lumbar_bending	lumbar_rotation
      0.01000000	      2.54984837	     -0.58845876	     -3.61207072	     -1.18173573	      0.93949583	     -0.11155264	     -3.01622846	     -1.68016112	      3.30977460	     -5.64318749	      4.99785758	      2.29097180	     -2.66143372	     -1.96457268	    -10.53704788	     -8.42959005	      6.46473442	      3.33106364	     -5.98485486	     -2.58727073	     -0.87080664
      0.02000000	      2.55168470	     -0.59151453	     -3.63378729	     -1.18169854	      0.93949542	     -0.11154960	     -3.01496394	     -1.67920498	      3.30563127	     -5.64516183	      4.99601042	      2.29091833	     -2.66482117	     -1.96523066	    -10.53425310	     -8.43750121	      6.46573879	      3.33101093	     -5.98068690	     -2.58601230	     -0.87718350
      0.03000000	      2.55494294	     -0.60584786	     -3.66957984	     -1.18169737	      0.93949631	     -0.11154413	     -2.98698966	     -1.66591247	      3.29640070	     -5.69667874	      4.97396843	      2.28578082	     -2.66378118	     -1.97783681	    -10.56349465	     -8.45653011	      6.48545016	      3.33187193	     -5.98724325	     -2.56649614	     -0.88662696
      0.04000000	      2.54610674	     -0.62935682	     -3.71730497	     -1.18167239	      0.93947634	     -0.11149402	     -2.95102732	     -1.63945832	      3.29276611	     -5.73920901	      4.96470495	      2.26969940	     -2.64082583	     -2.00629434	    -10.62387045	     -8.50369165	      6.52224334	      3.33595798	     -5.97176402	     -2.54443469	     -0.85999843
      0.05000000	      2.54737070	     -0.63212247	     -3.74930075	     -1.18161757	      0.93947359	     -0.11148874	     -2.94962242	     -1.63939245	      3.29030268	     -5.73914775	      4.96435862	      2.26825578	     -2.64376391	     -2.00541364	    -10.62034899	     -8.51526884	      6.52323896	      3.33632650	     -5.96529653	     -2.54127225	     -0.86826560
      0.06000000	      2.52675267	     -0.65621029	     -3.82988975	     -1.18161465	      0.93943149	     -0.11139882	     -2.88926961	     -1.61245713	      3.34139023	     -5.79486000	      4.95852020	      2.21778131	     -2.60231903	     -2.03567095	    -10.73585207	     -8.57946206	      6.58079495	      3.34453632	     -5.94025824	     -2.51522709	     -0.81738242
      0.07000000	      2.52962757	     -0.65857591	     -3.86403459	     -1.18154898	      0.93943171	     -0.11137816	     -2.88935967	     -1.61156174	      3.33947720	     -5.79713756	      4.95745444	      2.21584843	     -2.60681705	     -2.03490735	    -10.73097415	     -8.59262318	      6.58077490	      3.34471757	     -5.93287322	     -2.51375648	     -0.82662355
      0.08000000	      2.52619403	     -0.67826371	     -3.95221964	     -1.18153377	      0.93941307	     -0.11126946	     -2.84961413	     -1.59051433	      3.40484988	     -5.84987999	      4.95263155	      2.15482788	     -2.58673928	     -2.05903853	    -10.85127594	     -8.65414271	      6.62811659	      3.34576584	     -5.92654030	     -2.49552693	     -0.76964382
      0.09000000	      2.53348240	     -0.68335248	     -4.00180535	     -1.18149082	      0.93941223	     -0.11121131	     -2.84082409	     -1.58560076	      3.44280624	     -5.87630591	      4.94758654	      2.13103479	     -2.58557953	     -2.06362170	    -10.87308650	     -8.69119109	      6.64043938	      3.34457295	     -5.92837098	     -2.49434363	     -0.76618940
      0.10000000	      2.54330306	     -0.69562644	     -4.07609777	     -1.18144044	      0.93940936	     -0.11112634	     -2.83813560	     -1.57506556	      3.49096177	     -5.88990382	      4.95123419	      2.09356599	     -2.58374404	     -2.07645622	    -10.95465000	     -8.74465881	      6.67234920	      3.33834542	     -5.93349862	     -2.48194987	     -0.71453463
